<svg width="512" height="512" viewBox="0 0 512 512" xmlns="http://www.w3.org/2000/svg">
  <path d="M224.92 242.02 L263.30 242.02 Q274.98 242.02 284.58 239.10 Q294.18 236.18 301.06 228.88 Q307.95 221.58 311.70 209.06 Q315.46 196.54 315.46 177.35 Q315.46 155.65 309.82 142.51 Q304.19 129.37 295.22 122.69 Q286.25 116.01 275.19 113.93 Q264.14 111.84 253.29 111.84 Q245.78 111.84 238.06 112.05 Q230.34 112.26 224.92 113.09 Z M224.92 398.49 Q229.92 398.91 235.97 399.53 Q242.02 400.16 253.29 400.16 Q272.90 400.16 286.88 396.40 Q300.85 392.65 309.82 383.26 Q318.80 373.87 322.97 358.43 Q327.14 343.00 327.14 319.63 Q327.14 286.25 312.95 267.06 Q298.77 247.86 270.81 247.86 L224.92 247.86 Z M136.88 398.49 L183.19 398.49 L183.19 113.09 L136.88 113.09 L136.88 107.25 L209.89 107.25 Q216.15 107.25 222.62 107.04 Q229.09 106.83 235.76 106.42 Q242.44 106.42 248.70 106.21 Q254.96 106.00 260.80 106.00 Q291.26 106.00 310.87 113.30 Q330.48 120.60 341.74 131.24 Q353.01 141.88 357.18 154.19 Q361.35 166.50 361.35 176.51 Q361.35 190.28 355.30 201.97 Q349.25 213.65 339.03 222.41 Q328.81 231.17 315.46 236.60 Q302.11 242.02 287.50 243.69 L287.50 244.53 Q302.52 245.78 318.17 250.99 Q333.82 256.21 346.54 265.60 Q359.27 274.98 367.20 288.75 Q375.12 302.52 375.12 320.46 Q375.12 339.24 368.03 354.89 Q360.94 370.53 346.75 381.80 Q332.56 393.07 310.87 399.53 Q289.17 406.00 260.38 406.00 Q254.54 406.00 248.91 405.79 Q243.27 405.58 237.02 405.17 Q230.76 404.75 224.08 404.54 Q217.40 404.33 209.89 404.33 L136.88 404.33 Z" fill="#F5F4F0" stroke="#F5F4F0" stroke-width="6" stroke-linejoin="round"/>
</svg>